<mxfile host="app.diagrams.net" modified="2022-05-07T03:07:25.751Z" agent="5.0 (Windows NT 10.0; Win64; x64) AppleWebKit/537.36 (KHTML, like Gecko) Chrome/101.0.4951.54 Safari/537.36" etag="XEfluB1IhJ8bUvpIyMqn" version="17.5.0" type="github">
  <diagram id="1Cl2aKxaGJRScaBJWSH4" name="Page-1">
    <mxGraphModel dx="1422" dy="774" grid="1" gridSize="10" guides="1" tooltips="1" connect="1" arrows="1" fold="1" page="1" pageScale="1" pageWidth="827" pageHeight="1169" math="0" shadow="0">
      <root>
        <mxCell id="0" />
        <mxCell id="1" parent="0" />
        <mxCell id="OpEfgw41X5oSIJhUU12Z-4" value="" style="edgeStyle=orthogonalEdgeStyle;rounded=0;orthogonalLoop=1;jettySize=auto;html=1;" edge="1" parent="1" source="OpEfgw41X5oSIJhUU12Z-2" target="OpEfgw41X5oSIJhUU12Z-3">
          <mxGeometry relative="1" as="geometry" />
        </mxCell>
        <mxCell id="OpEfgw41X5oSIJhUU12Z-2" value="1" style="rounded=0;whiteSpace=wrap;html=1;fillColor=#dae8fc;strokeColor=#6c8ebf;" vertex="1" parent="1">
          <mxGeometry x="130" y="620" width="50" height="30" as="geometry" />
        </mxCell>
        <mxCell id="OpEfgw41X5oSIJhUU12Z-6" value="" style="edgeStyle=orthogonalEdgeStyle;rounded=0;orthogonalLoop=1;jettySize=auto;html=1;" edge="1" parent="1" source="OpEfgw41X5oSIJhUU12Z-3" target="OpEfgw41X5oSIJhUU12Z-5">
          <mxGeometry relative="1" as="geometry" />
        </mxCell>
        <mxCell id="OpEfgw41X5oSIJhUU12Z-3" value="3" style="rounded=0;whiteSpace=wrap;html=1;fillColor=#dae8fc;strokeColor=#6c8ebf;" vertex="1" parent="1">
          <mxGeometry x="260" y="620" width="50" height="30" as="geometry" />
        </mxCell>
        <mxCell id="OpEfgw41X5oSIJhUU12Z-8" value="" style="edgeStyle=orthogonalEdgeStyle;rounded=0;orthogonalLoop=1;jettySize=auto;html=1;" edge="1" parent="1" source="OpEfgw41X5oSIJhUU12Z-5" target="OpEfgw41X5oSIJhUU12Z-7">
          <mxGeometry relative="1" as="geometry" />
        </mxCell>
        <mxCell id="OpEfgw41X5oSIJhUU12Z-5" value="5" style="rounded=0;whiteSpace=wrap;html=1;fillColor=#dae8fc;strokeColor=#6c8ebf;" vertex="1" parent="1">
          <mxGeometry x="390" y="620" width="50" height="30" as="geometry" />
        </mxCell>
        <mxCell id="OpEfgw41X5oSIJhUU12Z-10" value="" style="edgeStyle=orthogonalEdgeStyle;rounded=0;orthogonalLoop=1;jettySize=auto;html=1;" edge="1" parent="1" source="OpEfgw41X5oSIJhUU12Z-7" target="OpEfgw41X5oSIJhUU12Z-9">
          <mxGeometry relative="1" as="geometry" />
        </mxCell>
        <mxCell id="OpEfgw41X5oSIJhUU12Z-7" value="6" style="rounded=0;whiteSpace=wrap;html=1;fillColor=#dae8fc;strokeColor=#6c8ebf;" vertex="1" parent="1">
          <mxGeometry x="520" y="620" width="50" height="30" as="geometry" />
        </mxCell>
        <mxCell id="OpEfgw41X5oSIJhUU12Z-12" value="" style="edgeStyle=orthogonalEdgeStyle;rounded=0;orthogonalLoop=1;jettySize=auto;html=1;" edge="1" parent="1" source="OpEfgw41X5oSIJhUU12Z-9" target="OpEfgw41X5oSIJhUU12Z-11">
          <mxGeometry relative="1" as="geometry" />
        </mxCell>
        <mxCell id="OpEfgw41X5oSIJhUU12Z-9" value="8" style="rounded=0;whiteSpace=wrap;html=1;fillColor=#dae8fc;strokeColor=#6c8ebf;" vertex="1" parent="1">
          <mxGeometry x="650" y="620" width="50" height="30" as="geometry" />
        </mxCell>
        <mxCell id="OpEfgw41X5oSIJhUU12Z-14" value="" style="edgeStyle=orthogonalEdgeStyle;rounded=0;orthogonalLoop=1;jettySize=auto;html=1;" edge="1" parent="1" source="OpEfgw41X5oSIJhUU12Z-11" target="OpEfgw41X5oSIJhUU12Z-13">
          <mxGeometry relative="1" as="geometry" />
        </mxCell>
        <mxCell id="OpEfgw41X5oSIJhUU12Z-11" value="9" style="rounded=0;whiteSpace=wrap;html=1;fillColor=#dae8fc;strokeColor=#6c8ebf;" vertex="1" parent="1">
          <mxGeometry x="780" y="620" width="50" height="30" as="geometry" />
        </mxCell>
        <mxCell id="OpEfgw41X5oSIJhUU12Z-16" value="" style="edgeStyle=orthogonalEdgeStyle;rounded=0;orthogonalLoop=1;jettySize=auto;html=1;" edge="1" parent="1" source="OpEfgw41X5oSIJhUU12Z-13" target="OpEfgw41X5oSIJhUU12Z-15">
          <mxGeometry relative="1" as="geometry" />
        </mxCell>
        <mxCell id="OpEfgw41X5oSIJhUU12Z-13" value="11" style="rounded=0;whiteSpace=wrap;html=1;fillColor=#dae8fc;strokeColor=#6c8ebf;" vertex="1" parent="1">
          <mxGeometry x="910" y="620" width="50" height="30" as="geometry" />
        </mxCell>
        <mxCell id="OpEfgw41X5oSIJhUU12Z-15" value="13" style="rounded=0;whiteSpace=wrap;html=1;fillColor=#dae8fc;strokeColor=#6c8ebf;" vertex="1" parent="1">
          <mxGeometry x="1040" y="620" width="50" height="30" as="geometry" />
        </mxCell>
        <mxCell id="OpEfgw41X5oSIJhUU12Z-17" value="level 0" style="text;html=1;align=center;verticalAlign=middle;resizable=0;points=[];autosize=1;strokeColor=none;fillColor=none;" vertex="1" parent="1">
          <mxGeometry x="30" y="625" width="50" height="20" as="geometry" />
        </mxCell>
        <mxCell id="OpEfgw41X5oSIJhUU12Z-18" value="1" style="rounded=0;whiteSpace=wrap;html=1;fillColor=#dae8fc;strokeColor=#6c8ebf;" vertex="1" parent="1">
          <mxGeometry x="130" y="520" width="50" height="30" as="geometry" />
        </mxCell>
        <mxCell id="OpEfgw41X5oSIJhUU12Z-33" style="edgeStyle=orthogonalEdgeStyle;rounded=0;orthogonalLoop=1;jettySize=auto;html=1;entryX=0;entryY=0.5;entryDx=0;entryDy=0;" edge="1" parent="1" source="OpEfgw41X5oSIJhUU12Z-19" target="OpEfgw41X5oSIJhUU12Z-22">
          <mxGeometry relative="1" as="geometry" />
        </mxCell>
        <mxCell id="OpEfgw41X5oSIJhUU12Z-19" value="5" style="rounded=0;whiteSpace=wrap;html=1;fillColor=#dae8fc;strokeColor=#6c8ebf;" vertex="1" parent="1">
          <mxGeometry x="390" y="520" width="50" height="30" as="geometry" />
        </mxCell>
        <mxCell id="OpEfgw41X5oSIJhUU12Z-34" style="edgeStyle=orthogonalEdgeStyle;rounded=0;orthogonalLoop=1;jettySize=auto;html=1;entryX=0;entryY=0.5;entryDx=0;entryDy=0;" edge="1" parent="1" source="OpEfgw41X5oSIJhUU12Z-22" target="OpEfgw41X5oSIJhUU12Z-23">
          <mxGeometry relative="1" as="geometry" />
        </mxCell>
        <mxCell id="OpEfgw41X5oSIJhUU12Z-22" value="6" style="rounded=0;whiteSpace=wrap;html=1;fillColor=#dae8fc;strokeColor=#6c8ebf;" vertex="1" parent="1">
          <mxGeometry x="520" y="520" width="50" height="30" as="geometry" />
        </mxCell>
        <mxCell id="OpEfgw41X5oSIJhUU12Z-35" style="edgeStyle=orthogonalEdgeStyle;rounded=0;orthogonalLoop=1;jettySize=auto;html=1;entryX=0;entryY=0.5;entryDx=0;entryDy=0;" edge="1" parent="1" source="OpEfgw41X5oSIJhUU12Z-23" target="OpEfgw41X5oSIJhUU12Z-25">
          <mxGeometry relative="1" as="geometry" />
        </mxCell>
        <mxCell id="OpEfgw41X5oSIJhUU12Z-23" value="9" style="rounded=0;whiteSpace=wrap;html=1;fillColor=#dae8fc;strokeColor=#6c8ebf;" vertex="1" parent="1">
          <mxGeometry x="780" y="520" width="50" height="30" as="geometry" />
        </mxCell>
        <mxCell id="OpEfgw41X5oSIJhUU12Z-25" value="13" style="rounded=0;whiteSpace=wrap;html=1;fillColor=#dae8fc;strokeColor=#6c8ebf;" vertex="1" parent="1">
          <mxGeometry x="1040" y="520" width="50" height="30" as="geometry" />
        </mxCell>
        <mxCell id="OpEfgw41X5oSIJhUU12Z-26" value="level 1" style="text;html=1;align=center;verticalAlign=middle;resizable=0;points=[];autosize=1;strokeColor=none;fillColor=none;" vertex="1" parent="1">
          <mxGeometry x="30" y="525" width="50" height="20" as="geometry" />
        </mxCell>
        <mxCell id="OpEfgw41X5oSIJhUU12Z-27" value="" style="endArrow=none;html=1;rounded=0;exitX=0.5;exitY=0;exitDx=0;exitDy=0;entryX=0.5;entryY=1;entryDx=0;entryDy=0;" edge="1" parent="1" source="OpEfgw41X5oSIJhUU12Z-2" target="OpEfgw41X5oSIJhUU12Z-18">
          <mxGeometry width="50" height="50" relative="1" as="geometry">
            <mxPoint x="370" y="450" as="sourcePoint" />
            <mxPoint x="420" y="400" as="targetPoint" />
          </mxGeometry>
        </mxCell>
        <mxCell id="OpEfgw41X5oSIJhUU12Z-28" value="" style="endArrow=none;html=1;rounded=0;exitX=0.5;exitY=0;exitDx=0;exitDy=0;entryX=0.5;entryY=1;entryDx=0;entryDy=0;" edge="1" parent="1">
          <mxGeometry width="50" height="50" relative="1" as="geometry">
            <mxPoint x="413" y="620" as="sourcePoint" />
            <mxPoint x="413" y="550" as="targetPoint" />
          </mxGeometry>
        </mxCell>
        <mxCell id="OpEfgw41X5oSIJhUU12Z-29" value="" style="endArrow=none;html=1;rounded=0;exitX=0.5;exitY=0;exitDx=0;exitDy=0;entryX=0.5;entryY=1;entryDx=0;entryDy=0;" edge="1" parent="1">
          <mxGeometry width="50" height="50" relative="1" as="geometry">
            <mxPoint x="544.6600000000001" y="620" as="sourcePoint" />
            <mxPoint x="544.6600000000001" y="550" as="targetPoint" />
          </mxGeometry>
        </mxCell>
        <mxCell id="OpEfgw41X5oSIJhUU12Z-30" value="" style="endArrow=none;html=1;rounded=0;exitX=0.5;exitY=0;exitDx=0;exitDy=0;entryX=0.5;entryY=1;entryDx=0;entryDy=0;" edge="1" parent="1">
          <mxGeometry width="50" height="50" relative="1" as="geometry">
            <mxPoint x="804.66" y="620" as="sourcePoint" />
            <mxPoint x="804.66" y="550" as="targetPoint" />
          </mxGeometry>
        </mxCell>
        <mxCell id="OpEfgw41X5oSIJhUU12Z-31" value="" style="endArrow=none;html=1;rounded=0;exitX=0.5;exitY=0;exitDx=0;exitDy=0;entryX=0.5;entryY=1;entryDx=0;entryDy=0;" edge="1" parent="1">
          <mxGeometry width="50" height="50" relative="1" as="geometry">
            <mxPoint x="1064.6599999999999" y="620" as="sourcePoint" />
            <mxPoint x="1064.6599999999999" y="550" as="targetPoint" />
          </mxGeometry>
        </mxCell>
        <mxCell id="OpEfgw41X5oSIJhUU12Z-32" value="" style="endArrow=classic;html=1;rounded=0;exitX=1;exitY=0.5;exitDx=0;exitDy=0;entryX=0;entryY=0.5;entryDx=0;entryDy=0;" edge="1" parent="1" source="OpEfgw41X5oSIJhUU12Z-18" target="OpEfgw41X5oSIJhUU12Z-19">
          <mxGeometry width="50" height="50" relative="1" as="geometry">
            <mxPoint x="370" y="450" as="sourcePoint" />
            <mxPoint x="420" y="400" as="targetPoint" />
          </mxGeometry>
        </mxCell>
        <mxCell id="OpEfgw41X5oSIJhUU12Z-36" value="1" style="rounded=0;whiteSpace=wrap;html=1;fillColor=#dae8fc;strokeColor=#6c8ebf;" vertex="1" parent="1">
          <mxGeometry x="130" y="420" width="50" height="30" as="geometry" />
        </mxCell>
        <mxCell id="OpEfgw41X5oSIJhUU12Z-38" value="" style="endArrow=none;html=1;rounded=0;exitX=0.5;exitY=0;exitDx=0;exitDy=0;entryX=0.5;entryY=1;entryDx=0;entryDy=0;" edge="1" parent="1">
          <mxGeometry width="50" height="50" relative="1" as="geometry">
            <mxPoint x="154.66" y="520" as="sourcePoint" />
            <mxPoint x="154.66" y="450" as="targetPoint" />
          </mxGeometry>
        </mxCell>
        <mxCell id="OpEfgw41X5oSIJhUU12Z-39" value="6" style="rounded=0;whiteSpace=wrap;html=1;fillColor=#dae8fc;strokeColor=#6c8ebf;" vertex="1" parent="1">
          <mxGeometry x="520" y="420" width="50" height="30" as="geometry" />
        </mxCell>
        <mxCell id="OpEfgw41X5oSIJhUU12Z-40" value="13" style="rounded=0;whiteSpace=wrap;html=1;fillColor=#dae8fc;strokeColor=#6c8ebf;" vertex="1" parent="1">
          <mxGeometry x="1040" y="420" width="50" height="30" as="geometry" />
        </mxCell>
        <mxCell id="OpEfgw41X5oSIJhUU12Z-44" value="" style="endArrow=none;html=1;rounded=0;exitX=0.5;exitY=0;exitDx=0;exitDy=0;entryX=0.5;entryY=1;entryDx=0;entryDy=0;" edge="1" parent="1">
          <mxGeometry width="50" height="50" relative="1" as="geometry">
            <mxPoint x="544.6600000000001" y="520" as="sourcePoint" />
            <mxPoint x="544.6600000000001" y="450" as="targetPoint" />
          </mxGeometry>
        </mxCell>
        <mxCell id="OpEfgw41X5oSIJhUU12Z-45" value="" style="endArrow=none;html=1;rounded=0;exitX=0.5;exitY=0;exitDx=0;exitDy=0;entryX=0.5;entryY=1;entryDx=0;entryDy=0;" edge="1" parent="1">
          <mxGeometry width="50" height="50" relative="1" as="geometry">
            <mxPoint x="1064.66" y="520" as="sourcePoint" />
            <mxPoint x="1064.66" y="450" as="targetPoint" />
          </mxGeometry>
        </mxCell>
        <mxCell id="OpEfgw41X5oSIJhUU12Z-48" style="edgeStyle=orthogonalEdgeStyle;rounded=0;orthogonalLoop=1;jettySize=auto;html=1;" edge="1" parent="1" source="OpEfgw41X5oSIJhUU12Z-46" target="OpEfgw41X5oSIJhUU12Z-47">
          <mxGeometry relative="1" as="geometry" />
        </mxCell>
        <mxCell id="OpEfgw41X5oSIJhUU12Z-46" value="1" style="rounded=0;whiteSpace=wrap;html=1;fillColor=#dae8fc;strokeColor=#6c8ebf;" vertex="1" parent="1">
          <mxGeometry x="130" y="320" width="50" height="30" as="geometry" />
        </mxCell>
        <mxCell id="OpEfgw41X5oSIJhUU12Z-47" value="13" style="rounded=0;whiteSpace=wrap;html=1;fillColor=#dae8fc;strokeColor=#6c8ebf;" vertex="1" parent="1">
          <mxGeometry x="1040" y="320" width="50" height="30" as="geometry" />
        </mxCell>
        <mxCell id="OpEfgw41X5oSIJhUU12Z-49" value="" style="endArrow=none;html=1;rounded=0;exitX=0.5;exitY=0;exitDx=0;exitDy=0;entryX=0.5;entryY=1;entryDx=0;entryDy=0;" edge="1" parent="1">
          <mxGeometry width="50" height="50" relative="1" as="geometry">
            <mxPoint x="154.66000000000008" y="420" as="sourcePoint" />
            <mxPoint x="154.66000000000008" y="350" as="targetPoint" />
          </mxGeometry>
        </mxCell>
        <mxCell id="OpEfgw41X5oSIJhUU12Z-50" value="" style="endArrow=none;html=1;rounded=0;exitX=0.5;exitY=0;exitDx=0;exitDy=0;entryX=0.5;entryY=1;entryDx=0;entryDy=0;" edge="1" parent="1">
          <mxGeometry width="50" height="50" relative="1" as="geometry">
            <mxPoint x="1064.6599999999999" y="420" as="sourcePoint" />
            <mxPoint x="1064.6599999999999" y="350" as="targetPoint" />
          </mxGeometry>
        </mxCell>
        <mxCell id="OpEfgw41X5oSIJhUU12Z-51" value="level 2" style="text;html=1;align=center;verticalAlign=middle;resizable=0;points=[];autosize=1;strokeColor=none;fillColor=none;" vertex="1" parent="1">
          <mxGeometry x="30" y="425" width="50" height="20" as="geometry" />
        </mxCell>
        <mxCell id="OpEfgw41X5oSIJhUU12Z-52" value="level 3" style="text;html=1;align=center;verticalAlign=middle;resizable=0;points=[];autosize=1;strokeColor=none;fillColor=none;" vertex="1" parent="1">
          <mxGeometry x="30" y="325" width="50" height="20" as="geometry" />
        </mxCell>
      </root>
    </mxGraphModel>
  </diagram>
</mxfile>
